<?xml version="1.0" encoding="iso-8859-1"?>
<!-- Generator: Adobe Illustrator 19.0.0, SVG Export Plug-In . SVG Version: 6.00 Build 0)  -->
<svg xmlns="http://www.w3.org/2000/svg" xmlns:xlink="http://www.w3.org/1999/xlink" version="1.1" id="Layer_1" x="0px" y="0px" viewBox="0 0 300.3 300.3" style="enable-background:new 0 0 300.3 300.3;" xml:space="preserve" width="512px" height="512px">
<g>
	<g>
		<g>
			<path d="M62.471,286.65c0,7.538,6.112,13.65,13.65,13.65h148.058c7.538,0,13.65-6.112,13.65-13.65V245.7H62.471V286.65z" fill="#91DC5A"/>
			<path d="M216.143,34.626c-0.571,0-1.144,0.006-1.717,0.019C200.295,13.064,176.435,0,150.151,0     c-26.286,0-50.146,13.064-64.273,34.645c-0.574-0.014-1.148-0.019-1.72-0.019c-42.412,0-76.918,34.506-76.918,76.92     c0,34.508,23.027,64.345,55.231,73.79V218.4h175.358v-33.058c32.201-9.447,55.231-39.294,55.231-73.796     C293.06,69.132,258.555,34.626,216.143,34.626z" fill="#91DC5A"/>
		</g>
	</g>
</g>
<g>
</g>
<g>
</g>
<g>
</g>
<g>
</g>
<g>
</g>
<g>
</g>
<g>
</g>
<g>
</g>
<g>
</g>
<g>
</g>
<g>
</g>
<g>
</g>
<g>
</g>
<g>
</g>
<g>
</g>
</svg>
