<?xml version="1.0" encoding="iso-8859-1"?>
<!-- Generator: Adobe Illustrator 18.1.1, SVG Export Plug-In . SVG Version: 6.00 Build 0)  -->
<svg xmlns="http://www.w3.org/2000/svg" xmlns:xlink="http://www.w3.org/1999/xlink" version="1.1" id="Capa_1" x="0px" y="0px" viewBox="0 0 611.998 611.998" style="enable-background:new 0 0 611.998 611.998;" xml:space="preserve" width="512px" height="512px">
<g>
	<g>
		<path d="M458.857,190.981c-18.187,0-35.121,5.942-49.331,16.13c-16.974-44.711-56.933-76.118-103.528-76.118    c-46.594,0-86.552,31.405-103.526,76.118c-14.212-10.188-31.143-16.13-49.335-16.13c-36.614,0-68.149,23.961-82.537,58.464    h470.796C527.004,214.942,495.474,190.981,458.857,190.981z" fill="#336199"/>
		<path d="M606.913,306.125c-3.337-6.606-10.108-10.772-17.51-10.772H22.597c-7.4,0-14.169,4.164-17.508,10.768    c-8.986,17.784-6.796,69.49,12.414,122.02c19.643,53.714,63.172,126.281,158.976,166.97c2.427,1.029,5.034,1.561,7.668,1.561    h243.703c2.634,0,5.243-0.53,7.668-1.561c95.788-40.681,139.315-113.234,158.962-166.937    C613.7,375.637,615.899,323.917,606.913,306.125z" fill="#336199"/>
		<path d="M217.233,87.319c2.867,8.021,10.419,13.024,18.477,13.024c2.19,0,4.416-0.369,6.596-1.147    c10.203-3.646,15.52-14.87,11.875-25.073L237.833,28.35c-3.644-10.201-14.868-15.518-25.071-11.876    c-10.203,3.644-15.52,14.87-11.876,25.071L217.233,87.319z" fill="#336199"/>
		<path d="M295.7,87.319c2.865,8.023,10.417,13.024,18.473,13.024c2.19,0,4.418-0.369,6.598-1.149    c10.201-3.644,15.518-14.868,11.875-25.071L316.296,28.35c-3.644-10.203-14.868-15.52-25.071-11.875    c-10.203,3.644-15.52,14.868-11.875,25.071L295.7,87.319z" fill="#336199"/>
		<path d="M374.165,87.319c2.867,8.023,10.417,13.024,18.475,13.024c2.19,0,4.418-0.369,6.598-1.149    c10.201-3.644,15.518-14.868,11.875-25.071L394.763,28.35c-3.646-10.203-14.866-15.52-25.073-11.875    c-10.201,3.644-15.518,14.868-11.875,25.071L374.165,87.319z" fill="#336199"/>
	</g>
</g>
<g>
</g>
<g>
</g>
<g>
</g>
<g>
</g>
<g>
</g>
<g>
</g>
<g>
</g>
<g>
</g>
<g>
</g>
<g>
</g>
<g>
</g>
<g>
</g>
<g>
</g>
<g>
</g>
<g>
</g>
</svg>
