<?xml version="1.0" encoding="iso-8859-1"?>
<!-- Generator: Adobe Illustrator 16.0.0, SVG Export Plug-In . SVG Version: 6.00 Build 0)  -->
<!DOCTYPE svg PUBLIC "-//W3C//DTD SVG 1.1//EN" "http://www.w3.org/Graphics/SVG/1.1/DTD/svg11.dtd">
<svg xmlns="http://www.w3.org/2000/svg" xmlns:xlink="http://www.w3.org/1999/xlink" version="1.1" id="Capa_1" x="0px" y="0px" width="512px" height="512px" viewBox="0 0 407.371 407.372" style="enable-background:new 0 0 407.371 407.372;" xml:space="preserve">
     <style>
        path{
  fill: #605D63; 
}</style>
<g>
	<g>
		<path d="M332.258,290.01c-2.812-2.812-6.627-4.395-10.605-4.395h-67.276v-81.509c0-9.826,5.321-19.907,11.481-31.581    c8.395-15.9,17.906-33.922,17.906-57.977c0-44.154-35.924-80.076-80.078-80.076s-80.077,35.922-80.077,80.076    c0,24.026,9.496,41.999,17.878,57.864c6.176,11.691,11.51,21.787,11.51,31.693v81.51H85.721c-3.979,0-7.794,1.58-10.606,4.394    l-10,10H342.26L332.258,290.01z" fill="#91DC5A"/>
		<path d="M0,313.215l21.496,50.553c2.354,5.536,7.788,9.13,13.804,9.13h336.772c6.016,0,11.449-3.594,13.803-9.13l21.496-50.553H0z    " fill="#91DC5A"/>
	</g>
</g>
<g>
</g>
<g>
</g>
<g>
</g>
<g>
</g>
<g>
</g>
<g>
</g>
<g>
</g>
<g>
</g>
<g>
</g>
<g>
</g>
<g>
</g>
<g>
</g>
<g>
</g>
<g>
</g>
<g>
</g>
</svg>
