<svg height="448pt" viewBox="0 0 448 448" width="448pt" xmlns="http://www.w3.org/2000/svg"><path d="m187.511719 288-73.328125 80h219.632812l-73.328125-80zm0 0"/><path d="m104 384h240v32h-240zm0 0"/><path d="m228.273438 0h-8.546876c-21.835937 0-42.496093 9.914062-56.160156 26.953125-13.664062 17.035156-18.859375 39.351563-14.117187 60.671875l40.949219 184.375h67.203124l40.964844-184.375c4.742188-21.324219-.453125-43.644531-14.121094-60.679688-13.667968-17.039062-34.332031-26.94921825-56.171874-26.945312zm-16.867188 255.808594c-.570312.125-1.15625.191406-1.742188.191406-3.75 0-6.996093-2.605469-7.808593-6.265625l-36.800781-165.597656c-3.722657-16.585938.324218-33.964844 10.992187-47.199219 2.765625-3.449219 7.804687-4 11.25-1.234375s3.996094 7.800781 1.230469 11.25c-7.621094 9.449219-10.507813 21.859375-7.847656 33.703125l36.800781 165.601562c.960937 4.3125-1.757813 8.589844-6.074219 9.550782zm59.3125-207.601563c-3.445312 2.765625-8.484375 2.210938-11.246094-1.238281-7.574218-9.484375-19.0625-14.996094-31.199218-14.96875h-12.273438c-4.417969 0-8-3.582031-8-8s3.582031-8 8-8h12.273438c16.992187-.039062 33.078124 7.675781 43.679687 20.960938 2.765625 3.445312 2.214844 8.480468-1.234375 11.246093zm0 0"/><path d="m0 432h448v16h-448zm0 0"/></svg>