<svg height="632pt" viewBox="-20 -46 632.00068 632" width="632pt" xmlns="http://www.w3.org/2000/svg"><path d="m584.835938 98.320312c-4.796876-.601562-9.167969 2.800782-9.765626 7.597657l-24.042968 192.332031h-92.027344l-11.949219-67.769531c-.738281-4.183594-4.371093-7.230469-8.617187-7.230469h-283.75c-4.238282 0-7.867188 3.039062-8.613282 7.210938l-12.109374 67.800781c-.074219 0-.140626-.011719-.214844-.011719h-92.269532l-24.042968-192.332031c-.601563-4.796875-4.972656-8.195313-9.765625-7.597657-4.796875.597657-8.199219 4.972657-7.5976565 9.769532l24.9999995 200c.546876 4.375 4.269532 7.660156 8.679688 7.660156h23l-24.121094 144.808594c-.796875 4.773437 2.425782 9.277344 7.191406 10.070312 4.765626.796875 9.273438-2.425781 10.066407-7.191406l24.617187-147.6875h56.347656l.828126-4.664062-35.601563 199.375c-.59375 3.320312.773437 6.6875 3.515625 8.648437l.261719.191406c32.585937 23.355469 76.125 24.476563 109.871093 2.828125 45.160157 21.757813 97.792969 21.671875 142.886719-.230468 20.101563 10.726562 42.460938 16.523437 65.242188 16.917968.789062.011719 1.574219.019532 2.359375.019532 23.605468-.015626 46.839844-5.835938 67.667968-16.953126l4.054688-2.167968c3.335938-1.78125 5.148438-5.507813 4.492188-9.234375l-34.339844-194.730469h55.910156l24.628906 147.691406c.789063 4.765625 5.296875 7.988282 10.066406 7.191406 4.765626-.796874 7.988282-5.300781 7.191407-10.066406l-24.132813-144.816406h22.996094c4.414062 0 8.136719-3.285156 8.683594-7.664062l25-200c.597656-4.796876-2.804688-9.167969-7.597656-9.765626zm-367.023438 413.679688c0 4.835938-3.914062 8.75-8.75 8.75-4.832031 0-8.75-3.914062-8.75-8.75v-107.5c0-4.832031 3.917969-8.75 8.75-8.75 4.835938 0 8.75 3.917969 8.75 8.75zm143.75 0c0 4.835938-3.914062 8.75-8.75 8.75-4.832031 0-8.75-3.914062-8.75-8.75v-151.25c0-4.832031 3.917969-8.75 8.75-8.75 4.835938 0 8.75 3.917969 8.75 8.75zm0 0"/><path d="m215 203.75h150c4.835938 0 8.75-3.917969 8.75-8.75-.058594-42.84375-32.398438-78.757812-75-83.292969v-10.203125c0-4.835937-3.914062-8.75-8.75-8.75-4.832031 0-8.75 3.914063-8.75 8.75v10.203125c-42.601562 4.535157-74.941406 40.449219-75 83.292969 0 4.832031 3.917969 8.75 8.75 8.75zm0 0"/><path d="m327.5 82c4.835938 0 8.75-3.914062 8.75-8.75v-28.75c0-4.832031-3.914062-8.75-8.75-8.75-4.832031 0-8.75 3.917969-8.75 8.75v28.75c0 4.835938 3.917969 8.75 8.75 8.75zm0 0"/><path d="m276.25 60.75c4.835938 0 8.75-3.914062 8.75-8.75v-45c0-4.832031-3.914062-8.75-8.75-8.75-4.832031 0-8.75 3.917969-8.75 8.75v45c0 4.835938 3.917969 8.75 8.75 8.75zm0 0"/><path d="m228.75 90.75c4.835938 0 8.75-3.914062 8.75-8.75v-23.75c0-4.832031-3.914062-8.75-8.75-8.75-4.832031 0-8.75 3.917969-8.75 8.75v23.75c0 4.835938 3.917969 8.75 8.75 8.75zm0 0"/></svg>