<?xml version="1.0" encoding="iso-8859-1"?>
<!-- Generator: Adobe Illustrator 16.0.0, SVG Export Plug-In . SVG Version: 6.00 Build 0)  -->
<!DOCTYPE svg PUBLIC "-//W3C//DTD SVG 1.1//EN" "http://www.w3.org/Graphics/SVG/1.1/DTD/svg11.dtd">
<svg version="1.1" id="Capa_1" xmlns="http://www.w3.org/2000/svg" xmlns:xlink="http://www.w3.org/1999/xlink" x="0px" y="0px"
	 width="45.904px" height="45.904px" viewBox="0 0 45.904 45.904" style="enable-background:new 0 0 45.904 45.904;"
	 xml:space="preserve">
<g>
	<g>
		<path d="M41.901,0H3.955c-1.545,0-2.77,1.271-2.77,2.816v4.299c0,1.544,1.225,2.83,2.77,2.83h2.697v33.147
			c0,1.555,1.272,2.812,2.826,2.812h26.9c1.554,0,2.81-1.258,2.81-2.812V9.945h2.714c1.545,0,2.818-1.286,2.818-2.83V2.816
			C44.72,1.272,43.446,0,41.901,0z M22.928,37.222c-6.653,0-12.065-5.413-12.065-12.065c0-6.653,5.412-12.066,12.065-12.066
			c6.651,0,12.063,5.413,12.063,12.066C34.993,31.809,29.579,37.222,22.928,37.222z M42.678,7.115c0,0.415-0.362,0.723-0.776,0.723
			h-2.714V6.521h1.126c0.85,0,1.538-0.698,1.538-1.548c0-0.849-0.688-1.548-1.538-1.548H5.542c-0.85,0-1.538,0.699-1.538,1.548
			c0,0.85,0.688,1.548,1.538,1.548H6.65v1.317H3.955c-0.414,0-0.728-0.308-0.728-0.723V2.816c0-0.414,0.313-0.774,0.728-0.774
			h37.947c0.414,0,0.776,0.36,0.776,0.774V7.115z"/>
		<path d="M22.928,15.66c-5.236,0-9.496,4.26-9.496,9.496s4.26,9.496,9.496,9.496c5.235,0,9.495-4.26,9.495-9.496
			S28.163,15.66,22.928,15.66z M23.708,30.582v1.822h-1.712v-1.697c-1.186-0.053-2.357-0.374-3.034-0.766l0.531-2.084
			c0.748,0.41,1.796,0.783,2.954,0.783c1.015,0,1.708-0.391,1.708-1.104c0-0.678-0.569-1.104-1.888-1.549
			c-1.904-0.642-3.209-1.532-3.209-3.259c0-1.568,1.094-2.796,3.003-3.17V17.85h1.779v1.584c1.186,0.053,1.98,0.303,2.57,0.588
			l-0.523,2.012c-0.463-0.196-1.284-0.605-2.565-0.605c-1.159,0-1.533,0.499-1.533,0.997c0,0.588,0.622,0.962,2.135,1.532
			c2.119,0.748,2.965,1.728,2.965,3.33C26.89,28.872,25.751,30.227,23.708,30.582z"/>
	</g>
</g>
<g>
</g>
<g>
</g>
<g>
</g>
<g>
</g>
<g>
</g>
<g>
</g>
<g>
</g>
<g>
</g>
<g>
</g>
<g>
</g>
<g>
</g>
<g>
</g>
<g>
</g>
<g>
</g>
<g>
</g>
</svg>
