<svg height="512pt" viewBox="0 0 512.00011 512" width="512pt" xmlns="http://www.w3.org/2000/svg"><path d="m492.820312 242.582031-16.484374-175.976562c-1.535157-16.410157-14.53125-29.40625-30.941407-30.941407l-175.976562-16.480468c-10.164063-.953125-20.222657 2.671875-27.445313 9.890625l-231.929687 231.929687c-13.390625 13.394532-13.390625 35.105469 0 48.496094l192.457031 192.457031c13.390625 13.390625 35.101562 13.390625 48.492188 0l231.929687-231.929687c7.222656-7.222656 10.847656-17.28125 9.898437-27.445313zm-55.984374-124.433593c-11.871094 11.871093-31.113282 11.871093-42.984376 0-11.871093-11.871094-11.871093-31.113282 0-42.984376 11.871094-11.871093 31.113282-11.871093 42.984376 0 11.871093 11.871094 11.871093 31.113282 0 42.984376zm0 0" fill="#fd747f"/><path d="m490.792969 220.949219-260.402344 260.402343c-13.390625 13.394532-35.101563 13.394532-48.496094 0l20.605469 20.605469c13.390625 13.390625 35.101562 13.390625 48.496094 0l231.929687-231.929687c7.21875-7.21875 10.84375-17.28125 9.890625-27.445313zm0 0" fill="#f25759"/><path d="m415.914062 258.628906-189.164062 189.164063-162.539062-162.539063 189.164062-189.164062zm0 0" fill="#efedee"/><g fill="#3a484a"><path d="m306.835938 99.152344c-1.976563 0-3.953126-.753906-5.460938-2.265625-3.019531-3.015625-3.019531-7.910157 0-10.925781l10.292969-10.292969c3.015625-3.019531 7.90625-3.015625 10.925781 0 3.015625 3.015625 3.015625 7.910156 0 10.925781l-10.292969 10.292969c-1.507812 1.507812-3.488281 2.265625-5.464843 2.265625zm0 0"/><path d="m420.578125 212.890625c-1.976563 0-3.957031-.757813-5.464844-2.265625-3.019531-3.015625-3.019531-7.910156 0-10.925781l10.289063-10.292969c3.019531-3.019531 7.914062-3.019531 10.929687 0 3.015625 3.015625 3.015625 7.910156 0 10.925781l-10.292969 10.292969c-1.507812 1.507812-3.484374 2.265625-5.460937 2.265625zm0 0"/><path d="m376.800781 169.394531c-8.871093 0-17.535156-3.628906-24.050781-10.144531-7.046875-7.046875-10.71875-16.605469-10.074219-26.226562.289063-4.257813 3.988281-7.472657 8.230469-7.191407 4.257812.289063 7.476562 3.96875 7.1875 8.226563-.347656 5.171875 1.6875 10.375 5.582031 14.265625 3.890625 3.894531 9.074219 5.929687 14.265625 5.582031 4.265625-.285156 7.941406 2.933594 8.226563 7.191406.285156 4.257813-2.933594 7.941406-7.191407 8.226563-.726562.046875-1.449218.070312-2.175781.070312zm0 0"/></g><path d="m203.636719 211.414062 19.101562-19.101562c12.382813-12.382812 25.160157-8.824219 35.828125 1.84375 10.539063 10.539062 14.097656 23.316406 1.714844 35.699219l-19.101562 19.101562c-12.382813 12.382813-25.160157 8.824219-35.699219-1.714843-10.667969-10.667969-14.226563-23.445313-1.84375-35.828126zm45.445312 7.242188c4.875-4.871094 4.214844-10.007812-.394531-14.621094-4.613281-4.609375-9.617188-5.136718-14.488281-.261718l-19.101563 19.101562c-4.875 4.871094-4.347656 9.875.261719 14.488281 4.613281 4.609375 9.75 5.269531 14.621094.394531zm68.5 35.832031c-.792969.789063-1.714843 1.449219-2.898437 1.84375l-143.054688 48.210938c-2.636718 1.054687-5.796875 0-8.035156-2.238281-3.6875-3.6875-3.164062-9.222657-.394531-11.988282.789062-.789062 1.84375-1.316406 2.765625-1.714844l143.449218-48.605468c2.765626-.921875 5.53125 0 7.507813 1.976562 3.027344 3.03125 4.214844 8.957032.660156 12.515625zm-98.136719 59.933594 19.097657-19.097656c12.382812-12.382813 25.160156-8.828125 35.832031 1.84375 10.539062 10.535156 14.09375 23.316406 1.710938 35.695312l-19.101563 19.101563c-12.511719 12.511718-25.160156 8.824218-35.695313-1.710938-10.671874-10.671875-14.359374-23.316406-1.84375-35.832031zm45.445313 7.246094c4.875-4.875 4.214844-10.011719-.398437-14.621094-4.609376-4.609375-9.613282-5.136719-14.488282-.265625l-19.101562 19.101562c-4.871094 4.875-4.34375 9.878907.265625 14.488282 4.609375 4.613281 9.75 5.269531 14.621093.398437zm0 0" fill="#4f648f"/><path d="m506.1875 5.8125c-7.753906-7.75-20.320312-7.75-28.074219 0l-64.339843 64.34375c-7.753907 7.753906-7.753907 20.320312 0 28.074219 7.75 7.75 20.320312 7.75 28.070312 0l64.34375-64.34375c7.75-7.753907 7.75-20.320313 0-28.074219zm0 0" fill="#4f648f"/></svg>