<?xml version="1.0" encoding="iso-8859-1"?>
<!-- Generator: Adobe Illustrator 19.0.0, SVG Export Plug-In . SVG Version: 6.00 Build 0)  -->
<svg version="1.1" id="Capa_1" xmlns="http://www.w3.org/2000/svg" xmlns:xlink="http://www.w3.org/1999/xlink" x="0px" y="0px"
	 viewBox="0 0 512 512" style="enable-background:new 0 0 512 512;" xml:space="preserve">
<path style="fill:#A8AFF1;" d="M107.201,286.942c1.465-7.529,4.438-14.604,8.745-20.889l8.628-9.521
	c4.233-4.893,12.261-14.891,27.51-30.125l104.033-103.564c17.871-18.179,30.469-30.791,31.978-32.3
	c3.032,10.298,8.218,19.321,15.601,26.704s16.406,12.568,26.104,15l-2.534,3.735c-12.217,12.231-21.475,21.504-28.96,29.253
	l-120,121.707H107.201z"/>
<path style="fill:#FD003A;" d="M512,466.942c0,24.814-20.186,45-45,45H45c-24.814,0-45-20.186-45-45v-150c0-24.814,20.186-45,45-45
	h422c24.814,0,45,20.186,45,45V466.942z"/>
<path style="fill:#E50027;" d="M467,271.942H256v240h211c24.814,0,45-20.186,45-45v-150C512,292.128,491.814,271.942,467,271.942z"
	/>
<g>
	<path style="fill:#C5C9F7;" d="M256,331.942c-8.291,0-15-6.709-15-15v-30c0-8.291,6.709-15,15-15c8.291,0,15,6.709,15,15v30
		C271,325.233,264.291,331.942,256,331.942z"/>
	<path style="fill:#C5C9F7;" d="M256,421.942c-8.291,0-15-6.709-15-15v-30c0-8.291,6.709-15,15-15c8.291,0,15,6.709,15,15v30
		C271,415.233,264.291,421.942,256,421.942z"/>
	<path style="fill:#C5C9F7;" d="M256,511.942c-8.291,0-15-6.709-15-15v-30c0-8.291,6.709-15,15-15c8.291,0,15,6.709,15,15v30
		C271,505.233,264.291,511.942,256,511.942z"/>
</g>
<g>
	<path style="fill:#FFCC33;" d="M437,451.942H316c-8.291,0-15-6.709-15-15s6.709-15,15-15h121c8.291,0,15,6.709,15,15
		S445.291,451.942,437,451.942z"/>
	<path style="fill:#FFCC33;" d="M407,391.942h-61c-8.291,0-15-6.709-15-15s6.709-15,15-15h61c8.291,0,15,6.709,15,15
		S415.291,391.942,407,391.942z"/>
</g>
<g>
	<path style="fill:#FEDB41;" d="M196,451.942H75c-8.291,0-15-6.709-15-15s6.709-15,15-15h121c8.291,0,15,6.709,15,15
		S204.291,451.942,196,451.942z"/>
	<path style="fill:#FEDB41;" d="M166,391.942h-61c-8.291,0-15-6.709-15-15s6.709-15,15-15h61c8.291,0,15,6.709,15,15
		S174.291,391.942,166,391.942z"/>
</g>
<g>
	<path style="fill:#A8AFF1;" d="M271,496.942v-30c0-8.291-6.709-15-15-15v60C264.291,511.942,271,505.233,271,496.942z"/>
	<path style="fill:#A8AFF1;" d="M271,406.942v-30c0-8.291-6.709-15-15-15v60C264.291,421.942,271,415.233,271,406.942z"/>
	<path style="fill:#A8AFF1;" d="M271,316.942v-30c0-8.291-6.709-15-15-15v60C264.291,331.942,271,325.233,271,316.942z"/>
</g>
<path style="fill:#C5C9F7;" d="M181.308,132.848c10.298-3.032,19.307-8.218,26.689-15.601s12.568-16.406,15-26.104l165.308,166.092
	c11.499,11.338,17.783,26.396,17.783,42.466c-0.01,11.347-3.167,22.204-9.062,31.588c-1.83,2.913-4.89,4.829-8.309,5.203
	s-6.821-0.835-9.24-3.28L181.308,132.848z"/>
<path style="fill:#FD003A;" d="M165.253,149.752c-19.175,0-38.218-7.646-52.456-21.899c-14.15-14.15-21.943-33.003-21.943-53.057
	c0-20.068,7.793-38.906,21.943-53.057c29.209-28.843,76.626-28.799,105.747-0.073c19.351,19.351,26.572,47.432,18.926,73.447
	c-3.12,12.202-9.639,23.511-18.867,32.739c-9.316,9.316-20.742,15.864-33.047,18.94
	C178.905,148.785,172.064,149.752,165.253,149.752z M165.722,30.045c-11.499,0-23.013,4.321-31.787,12.979
	c-8.408,8.408-13.081,19.717-13.081,31.772c0,12.041,4.673,23.35,13.154,31.846c11.514,11.499,28.242,15.776,43.623,11.235
	c7.676-1.948,14.297-5.771,19.761-11.235s9.287-12.085,11.06-19.146c0.044-0.22,0.103-0.425,0.176-0.645
	c4.629-15.527,0.337-32.344-11.235-43.901C188.676,34.352,177.206,30.045,165.722,30.045z"/>
<path style="fill:#E50027;" d="M346.63,149.708c-7.061,0-14.165-1.011-21.123-3.091c-11.675-2.9-23.115-9.463-32.417-18.765
	s-15.864-20.742-18.94-33.062c-7.603-25.459-0.41-53.701,18.94-73.052c29.297-28.887,76.86-28.901,106.04-0.073
	c28.989,29.355,28.989,76.89,0.146,106.113c-0.029,0.029-0.044,0.044-0.073,0.073C385.009,142.047,366.024,149.708,346.63,149.708z
	 M346.205,29.972c-11.572,0-23.159,4.351-31.978,13.052c-11.484,11.484-15.791,28.315-11.162,43.828
	c1.948,7.705,5.771,14.326,11.235,19.79s12.085,9.287,19.146,11.06c16.128,4.805,32.944,0.527,44.517-11.03
	c17.329-17.607,17.314-46.216-0.044-63.779C369.218,34.278,357.719,29.972,346.205,29.972z M388.598,117.247h0.293H388.598z"/>
<g>
</g>
<g>
</g>
<g>
</g>
<g>
</g>
<g>
</g>
<g>
</g>
<g>
</g>
<g>
</g>
<g>
</g>
<g>
</g>
<g>
</g>
<g>
</g>
<g>
</g>
<g>
</g>
<g>
</g>
</svg>
