<?xml version="1.0" encoding="iso-8859-1"?>
<!-- Generator: Adobe Illustrator 19.0.0, SVG Export Plug-In . SVG Version: 6.00 Build 0)  -->
<svg version="1.1" id="Layer_1" xmlns="http://www.w3.org/2000/svg" xmlns:xlink="http://www.w3.org/1999/xlink" x="0px" y="0px"
	 viewBox="0 0 512 512" style="enable-background:new 0 0 512 512;" xml:space="preserve">
<circle style="fill:#F1333F;" cx="256" cy="256" r="256"/>
<path style="fill:#AE283F;" d="M176.22,499.305C201.329,507.533,228.141,512,256,512c141.385,0,256-114.615,256-256
	c0-31.301-5.627-61.284-15.909-89.008l-32.825-32.825l-14.914,93.745l-85.718-85.718l-185.81,71.535l-83.141-83.141l-0.911,20.938
	l-20.938-20.938l-1.497,21.438L48.9,130.589l-3.847,88.393L71,244.929L53.928,382.667L176.22,499.305z"/>
<circle style="fill:#FFFFFF;" cx="256.01" cy="256" r="155.95"/>
<g>
	<path style="fill:#E0E0E0;" d="M256.009,100.049c-0.114,0-0.228,0.004-0.342,0.004v311.893c0.114,0,0.228,0.004,0.342,0.004
		c86.129,0,155.951-69.822,155.951-155.951S342.138,100.049,256.009,100.049z"/>
	<circle style="fill:#E0E0E0;" cx="256.01" cy="256" r="90.72"/>
</g>
<path style="fill:#C0C0C0;" d="M256.009,165.284c-0.114,0-0.228,0.004-0.342,0.004v181.424c0.114,0,0.228,0.004,0.342,0.004
	c50.101,0,90.716-40.615,90.716-90.716S306.11,165.284,256.009,165.284z"/>
<path style="fill:#FFD863;" d="M445.351,126.502c-12.385,0.44-22.022,10.995-22.022,23.388v235.623h27.867V279.256
	c9.854,0,17.843-7.989,17.843-17.843V149.342C469.039,136.443,458.353,126.04,445.351,126.502z"/>
<path style="fill:#FFECB3;" d="M81.795,382.667V223.651c6.661-0.584,11.888-6.169,11.888-12.982v-80.08h-6.86v58.394
	c0,3.617-2.932,6.549-6.549,6.549h-1.891c-3.617,0-6.549-2.932-6.549-6.549v-58.394h-7.945v58.394c0,3.617-2.932,6.549-6.549,6.549
	h-1.891c-3.617,0-6.549-2.932-6.549-6.549v-58.394h-6.86v80.08c0,6.813,5.227,12.398,11.888,12.982v159.015L81.795,382.667
	L81.795,382.667z"/>
<g>
</g>
<g>
</g>
<g>
</g>
<g>
</g>
<g>
</g>
<g>
</g>
<g>
</g>
<g>
</g>
<g>
</g>
<g>
</g>
<g>
</g>
<g>
</g>
<g>
</g>
<g>
</g>
<g>
</g>
</svg>
