<svg height="512pt" viewBox="-33 0 512 512" width="512pt" xmlns="http://www.w3.org/2000/svg"><path d="m416.832031 184.300781v290.652344h-386.730469v-290.652344c0-25.546875 20.714844-46.261719 46.261719-46.261719h294.199219c25.558594 0 46.269531 20.714844 46.269531 46.261719zm0 0" fill="#e6e6e6"/><path d="m30.101562 427.957031h386.730469v57.464844h-386.730469zm0 0" fill="#ccc"/><path d="m410.445312 439.03125h-373.960937c-20.148437 0-36.484375 16.335938-36.484375 36.484375s16.335938 36.484375 36.484375 36.484375h373.960937c20.152344 0 36.484376-16.335938 36.484376-36.484375s-16.332032-36.484375-36.484376-36.484375zm0 0" fill="#e6e6e6"/><path d="m442.050781 493.757812c-6.3125 10.90625-18.105469 18.242188-31.605469 18.242188h-373.960937c-10.070313 0-19.191406-4.085938-25.792969-10.691406-6.605468-6.601563-10.691406-15.722656-10.691406-25.792969 0-20.148437 16.335938-36.484375 36.484375-36.484375h.238281c-3.101562 5.375-4.882812 11.605469-4.882812 18.242188 0 10.070312 4.089844 19.191406 10.691406 25.796874 6.59375 6.601563 15.714844 10.6875 25.792969 10.6875zm0 0" fill="#ccc"/><path d="m278.078125 475.515625h-109.226563c-18.195312 0-32.949218-14.753906-32.949218-32.949219v-3.535156h175.125v3.535156c0 18.195313-14.753906 32.949219-32.949219 32.949219zm0 0" fill="#ccc"/><path d="m398.140625 31.828125s0 29.046875-30.613281 40.820313c-30.613282 11.773437-31.398438 50.238281-31.398438 50.238281s0-28.261719-40.816406-43.960938-21.980469-78.925781-21.980469-78.925781c-30.613281 12.914062-47.097656 64.796875-31.398437 97.765625 15.699218 32.96875-50.804688 67.632813-50.804688-5.710937s-92.058594-92.054688-92.058594-92.054688 32.96875 22.410156 32.96875 58.519531-36.109374 75.355469-36.109374 75.355469c0-48.667969-62.796876-86.347656-62.796876-86.347656s14.128907 34.539062-1.570312 70.648437c-15.695312 36.105469-1.457031 66.121094 25.902344 120.882813v137.605468c0 14.296876 11.589844 25.882813 25.882812 25.882813h280.242188c14.292968 0 25.878906-11.585937 25.878906-25.882813v-158.015624c65.902344-51.804688 8.671875-186.820313 8.671875-186.820313zm0 0" fill="#f25f5f"/><g fill="#f4d06b"><path d="m182.164062 246.289062v-68.621093c0-2.398438-2.238281-5.203125-8.546874-5.203125-6.308594 0-8.546876 2.800781-8.546876 5.203125v26.304687h-21.210937v-26.304687c0-2.398438-2.238281-5.203125-8.546875-5.203125s-8.546875 2.800781-8.546875 5.203125v68.621093c0 2.558594 2.671875 5.3125 8.546875 5.3125 5.871094 0 8.546875-2.753906 8.546875-5.3125v-29.109374h21.210937v29.109374c0 2.558594 2.675782 5.3125 8.546876 5.3125 5.871093 0 8.546874-2.753906 8.546874-5.3125zm0 0"/><path d="m252.402344 226.652344v-28.59375c0-8.78125-2.601563-15.441406-7.730469-19.789063-4.546875-3.851562-10.917969-5.804687-18.941406-5.804687-8.015625 0-14.367188 1.953125-18.886719 5.804687-5.097656 4.339844-7.679688 11-7.679688 19.789063v28.59375c0 8.789062 2.585938 15.449218 7.679688 19.792968 4.519531 3.851563 10.871094 5.804688 18.886719 5.804688 8.023437 0 14.394531-1.953125 18.941406-5.804688 5.128906-4.351562 7.730469-11.007812 7.730469-19.792968zm-36.144532-28.59375c0-7.070313 3.1875-10.65625 9.472657-10.65625 6.265625 0 9.578125 3.683594 9.578125 10.65625v28.59375c0 6.972656-3.3125 10.660156-9.578125 10.660156-6.285157 0-9.472657-3.585938-9.472657-10.660156zm0 0"/><path d="m320.273438 180.039062c0-5.230468-2.613282-7.574218-5.203126-7.574218h-46.613281c-2.589843 0-5.199219 2.34375-5.199219 7.574218 0 4.589844 2.136719 7.792969 5.199219 7.792969h14.761719v58.457031c0 2.558594 2.671875 5.3125 8.546875 5.3125 5.871094 0 8.546875-2.753906 8.546875-5.3125v-58.457031h14.757812c3.0625 0 5.203126-3.203125 5.203126-7.792969zm0 0"/><path d="m143.300781 272.46875c-4.542969-3.851562-10.914062-5.804688-18.9375-5.804688h-19.101562c-4.253907 0-7.464844 2.238282-7.464844 5.203126v68.730468c0 2.964844 3.207031 5.203125 7.464844 5.203125h19.101562c8.023438 0 14.394531-1.953125 18.9375-5.804687 5.132813-4.347656 7.734375-11.007813 7.734375-19.789063v-27.949219c0-8.78125-2.601562-15.441406-7.734375-19.789062zm-18.9375 58.398438h-9.472656v-49.265626h9.472656c6.265625 0 9.578125 3.6875 9.578125 10.660157v27.945312c0 6.972657-3.3125 10.660157-9.578125 10.660157zm0 0"/><path d="m213.808594 281.601562c3.0625 0 5.203125-3.117187 5.203125-7.578124 0-5.082032-2.613281-7.359376-5.203125-7.359376h-38.410156c-5.132813 0-7.46875 2.753907-7.46875 5.3125v68.515626c0 2.554687 2.335937 5.308593 7.46875 5.308593h38.410156c2.589844 0 5.203125-2.277343 5.203125-7.359375 0-4.460937-2.140625-7.578125-5.203125-7.578125h-28.785156v-18.078125h16.054687c1.660156 0 3.035156-.746094 3.980469-2.152344.773437-1.15625 1.222656-2.742187 1.222656-4.347656 0-3.335937-1.789062-6.710937-5.203125-6.710937h-16.054687v-17.972657zm0 0"/><path d="m269.71875 271.71875c-1.324219-4.207031-6.824219-5.703125-11.132812-5.703125-4.304688 0-9.808594 1.496094-11.128907 5.703125l-20.074219 65.832031c-.105468.429688-.21875.875-.21875 1.214844 0 3.894531 5.976563 7.035156 10.921876 7.035156 3.078124 0 5.027343-1.113281 5.628906-3.226562l3.640625-13.390625h22.566406l3.644531 13.394531c.601563 2.109375 2.550782 3.222656 5.628906 3.222656 4.945313 0 10.921876-3.136719 10.921876-7.035156 0-.339844-.113282-.785156-.222657-1.226563zm-11.132812 15.96875 7.707031 28.289062h-15.414063zm0 0"/><path d="m344.148438 330.867188h-24.46875v-59c0-2.398438-2.242188-5.203126-8.550782-5.203126-6.304687 0-8.546875 2.804688-8.546875 5.203126v68.625c0 2.554687 2.339844 5.308593 7.46875 5.308593h34.097657c2.402343 0 4.984374-2.335937 4.984374-7.46875 0-5.128906-2.582031-7.464843-4.984374-7.464843zm0 0"/></g></svg>