<?xml version="1.0" encoding="iso-8859-1"?>
<!-- Generator: Adobe Illustrator 19.0.0, SVG Export Plug-In . SVG Version: 6.00 Build 0)  -->
<svg xmlns="http://www.w3.org/2000/svg" xmlns:xlink="http://www.w3.org/1999/xlink" version="1.1" id="Layer_1" x="0px" y="0px" viewBox="0 0 512 512" style="enable-background:new 0 0 512 512;" xml:space="preserve" width="512px" height="512px">
     <style>
        path{
  fill: #605D63; 
}</style>
<g>
	<g>
		<path d="M324.176,221.185c-13.635-40.905-68.176-27.269-68.176,0c0-27.269-54.54-40.905-68.175,0    C174.189,262.091,256,316.632,256,316.632S337.811,262.091,324.176,221.185z" fill="#91DC5A"/>
	</g>
</g>
<g>
	<g>
		<path d="M473.966,355.864c-8.638-14.344-27.268-18.968-41.611-10.332l-97.873,50.005c5.612-5.501,9.096-13.165,9.096-21.643    c0-16.744-13.573-30.316-30.316-30.316h-91.904c-36.744,0-54.779-25.034-113.57-26.836v-13.586H0v202.105h107.789v-49.284    c7.144,4.855,19.36,13.068,33.684,22.337c20.438,13.224,30.033,13.474,45.591,13.474l100.375-0.036    c12.575,0,25.151-5.353,39.074-12.09c13.922-6.737,137.123-82.19,137.123-82.19C477.98,388.836,482.604,370.208,473.966,355.864z     M67.368,464.842H40.421V343.579h26.947V464.842z" fill="#91DC5A"/>
	</g>
</g>
<g>
	<g>
		<path d="M404.211,6.737v49.284c-7.144-4.855-19.36-13.068-33.684-22.337C350.088,20.46,340.493,20.21,324.935,20.21    l-100.374,0.036c-12.575,0-25.151,5.353-39.074,12.09c-13.924,6.737-137.123,82.189-137.123,82.189    c-14.344,8.638-18.968,27.265-10.33,41.609c8.638,14.344,27.267,18.968,41.609,10.332l97.873-50.005    c-5.612,5.501-9.096,13.164-9.096,21.643c0,16.744,13.573,30.316,30.316,30.316h91.904c36.744,0,54.779,25.034,113.57,26.836    v13.586H512V6.737H404.211z M471.579,168.421h-26.947V47.158h26.947V168.421z" fill="#91DC5A"/>
	</g>
</g>
<g>
</g>
<g>
</g>
<g>
</g>
<g>
</g>
<g>
</g>
<g>
</g>
<g>
</g>
<g>
</g>
<g>
</g>
<g>
</g>
<g>
</g>
<g>
</g>
<g>
</g>
<g>
</g>
<g>
</g>
</svg>
